<svg xmlns="http://www.w3.org/2000/svg" viewBox="0 0 512 512">

<defs>
<linearGradient id="pad" x1="0" y1="0" x2="0" y2="1">
<stop offset="0%" stop-color="#444"/>
<stop offset="100%" stop-color="#111"/>
</linearGradient>
</defs>

<!-- background -->
<rect width="512" height="512" rx="90" fill="#000"/>

<!-- signal source dot -->
<circle cx="256" cy="95" r="8" fill="#fff"/>

<!-- wireless signal -->
<path d="M180 140 Q256 200 332 140" stroke="#fff" stroke-width="14" fill="none" stroke-linecap="round"/>
<path d="M210 110 Q256 160 302 110" stroke="#fff" stroke-width="14" fill="none" stroke-linecap="round"/>

<!-- controller body -->
<path d="M140 260 
C140 210 180 190 220 205
L292 205
C332 190 372 210 372 260
L372 310
C372 350 340 360 305 330
L207 330
C172 360 140 350 140 310
Z" fill="url(#pad)"/>

<!-- LEFT + PAD -->
<rect x="180" y="270" width="60" height="14" rx="3" fill="#777"/>
<rect x="203" y="247" width="14" height="60" rx="3" fill="#777"/>

<!-- ABXY buttons -->
<circle cx="300" cy="245" r="12" fill="#ffd500"/>
<circle cx="325" cy="270" r="12" fill="#ff4b4b"/>
<circle cx="300" cy="295" r="12" fill="#3cff6b"/>
<circle cx="275" cy="270" r="12" fill="#3db9ff"/>

</svg>